<!-- <svg id="Layer_1" data-name="Layer 1" xmlns="http://www.w3.org/2000/svg" viewBox="0 0 1022.51 360"><defs><style>.cls-1{fill:#1877F2;}</style></defs><title>FBWordmark_Hex-RGB-1024</title><path class="cls-1" d="M166.43,126.68c-9.65,0-12.44,4.28-12.44,13.72v15.66h25.74l-2.58,25.3H154v76.78H123.11V181.36H102.3v-25.3h20.81V140.83c0-25.52,10.29-39,39-39a146.17,146.17,0,0,1,18,1.07v23.81Z"/><path class="cls-1" d="M181.87,203.88c0-28.52,13.51-50,41.82-50,15.44,0,24.87,7.94,29.38,17.8V156.06h29.59V258.14H253.07V242.7c-4.29,9.87-13.94,17.59-29.38,17.59-28.31,0-41.82-21.45-41.82-50Zm30.88,6.87c0,15.22,5.57,25.3,19.94,25.3,12.66,0,19.09-9.22,19.09-23.8V202c0-14.58-6.43-23.8-19.09-23.8-14.37,0-19.94,10.08-19.94,25.3Z"/><path class="cls-1" d="M347,153.91c12,0,23.37,2.58,29.59,6.86l-6.86,21.88a48.6,48.6,0,0,0-20.59-4.72c-16.73,0-24,9.65-24,26.17v6c0,16.52,7.29,26.17,24,26.17a48.6,48.6,0,0,0,20.59-4.72l6.86,21.87c-6.22,4.29-17.58,6.87-29.59,6.87-36.25,0-52.76-19.52-52.76-50.83v-4.72C294.24,173.43,310.75,153.91,347,153.91Z"/><path class="cls-1" d="M380.66,211v-9c0-28.95,16.51-48,50.19-48,31.74,0,45.68,19.3,45.68,47.61v16.3h-65c.65,13.94,6.87,20.16,24,20.16,11.59,0,23.81-2.36,32.82-6.22L474,253c-8.15,4.3-24.88,7.51-39.67,7.51C395.24,260.5,380.66,241,380.66,211Zm30.88-13.3h37.32v-2.57c0-11.15-4.5-20-18-20C416.91,175.14,411.54,183.94,411.54,197.66Z"/><path class="cls-1" d="M591,210.32c0,28.52-13.72,50-42,50-15.44,0-26.16-7.72-30.45-17.59v15.44H489.39V104.8L520.27,102v68.2c4.5-9,14.37-16.3,28.74-16.3,28.31,0,42,21.45,42,50Zm-30.88-7.08c0-14.37-5.57-25.09-20.37-25.09-12.66,0-19.52,9-19.52,23.59v10.72c0,14.58,6.86,23.59,19.52,23.59,14.8,0,20.37-10.72,20.37-25.09Z"/><path class="cls-1" d="M601.33,209.67v-5.14c0-29.39,16.73-50.62,50.83-50.62S703,175.14,703,204.53v5.14c0,29.38-16.73,50.62-50.83,50.62S601.33,239.05,601.33,209.67Zm70.78-7.29c0-13.51-5.58-24.23-20-24.23s-19.95,10.72-19.95,24.23v9.44c0,13.51,5.58,24.23,19.95,24.23s20-10.72,20-24.23Z"/><path class="cls-1" d="M713.27,209.67v-5.14c0-29.39,16.73-50.62,50.83-50.62s50.83,21.23,50.83,50.62v5.14c0,29.38-16.73,50.62-50.83,50.62S713.27,239.05,713.27,209.67Zm70.78-7.29c0-13.51-5.58-24.23-19.95-24.23s-19.94,10.72-19.94,24.23v9.44c0,13.51,5.57,24.23,19.94,24.23s19.95-10.72,19.95-24.23Z"/><path class="cls-1" d="M857.39,204.74l30.45-48.68h32.81l-31.95,50.4,33.24,51.68H889.13l-31.74-50v50H826.5V104.8L857.39,102Z"/></svg> -->









<svg width="544" height="102" viewBox="0 0 544 102" fill="none" xmlns="http://www.w3.org/2000/svg">
<path d="M31.8319 83.61C27.5386 83.61 23.4752 82.9967 19.6419 81.77C15.8086 80.5433 12.3969 78.3967 9.40691 75.33C6.49358 72.2633 4.19358 68.0083 2.50691 62.565C0.896914 57.1217 0.0919144 50.145 0.0919144 41.635C0.0919144 33.2017 0.896914 26.3017 2.50691 20.935C4.19358 15.4917 6.49358 11.275 9.40691 8.285C12.3969 5.21833 15.8086 3.10999 19.6419 1.96C23.4752 0.733331 27.5386 0.119999 31.8319 0.119999C36.2019 0.119999 40.2652 0.733331 44.0219 1.96C47.8553 3.10999 51.2286 5.21833 54.1419 8.285C57.1319 11.275 59.4319 15.4917 61.0419 20.935C62.7286 26.3017 63.5719 33.2017 63.5719 41.635C63.5719 50.145 62.7286 57.1217 61.0419 62.565C59.4319 68.0083 57.1319 72.2633 54.1419 75.33C51.2286 78.3967 47.8553 80.5433 44.0219 81.77C40.2652 82.9967 36.2019 83.61 31.8319 83.61ZM31.8319 71.65C34.8986 71.65 37.5052 71.305 39.6519 70.615C41.8753 69.925 43.7153 68.545 45.1719 66.475C46.6286 64.405 47.7019 61.415 48.3919 57.505C49.0819 53.595 49.4269 48.42 49.4269 41.98C49.4269 35.4633 49.0819 30.25 48.3919 26.34C47.7786 22.3533 46.7436 19.325 45.2869 17.255C43.9069 15.185 42.0669 13.805 39.7669 13.115C37.5436 12.425 34.8986 12.08 31.8319 12.08C28.6886 12.08 26.0052 12.425 23.7819 13.115C21.5586 13.805 19.7186 15.185 18.2619 17.255C16.8819 19.325 15.8469 22.3533 15.1569 26.34C14.4669 30.25 14.1219 35.4633 14.1219 41.98C14.1219 48.42 14.4669 53.595 15.1569 57.505C15.9236 61.415 16.9969 64.405 18.3769 66.475C19.8336 68.545 21.6736 69.925 23.8969 70.615C26.1202 71.305 28.7652 71.65 31.8319 71.65ZM103.107 83.495C99.1201 83.495 95.7851 82.6133 93.1018 80.85C90.4951 79.01 88.5401 76.2883 87.2368 72.685C86.0101 69.0817 85.3968 64.52 85.3968 59V14.725H98.7368V56.355C98.7368 60.1117 98.8518 63.0633 99.0818 65.21C99.3118 67.28 99.6951 68.7367 100.232 69.58C100.845 70.27 101.65 70.7683 102.647 71.075C103.643 71.3817 104.793 71.535 106.097 71.535C109.01 71.535 112 70.96 115.067 69.81C118.133 68.5833 120.893 67.3183 123.347 66.015V14.725H136.572V82H127.947L126.337 75.33H125.647C124.113 76.1733 122.158 77.2467 119.782 78.55C117.405 79.8533 114.798 81.0033 111.962 82C109.125 82.9967 106.173 83.495 103.107 83.495ZM182.141 83.61C178.538 83.61 175.395 83.035 172.711 81.885C170.105 80.6583 168.073 78.3967 166.616 75.1C165.236 71.8033 164.546 66.8967 164.546 60.38V28.525H156.841V20.245L165.121 18.635L167.651 2.765H177.886V18.405H191.456V28.755H177.771V60.955C177.771 64.4817 177.925 67.05 178.231 68.66C178.538 70.27 179.113 71.305 179.956 71.765C180.8 72.1483 182.103 72.34 183.866 72.34C185.093 72.34 186.243 72.3017 187.316 72.225C188.466 72.1483 189.425 72.0717 190.191 71.995C190.958 71.9183 191.341 71.88 191.341 71.88V82.69C191.341 82.69 190.46 82.8433 188.696 83.15C186.933 83.4567 184.748 83.61 182.141 83.61ZM232.383 83.495C229.24 83.495 226.211 83.1883 223.298 82.575C220.385 81.9617 217.74 81.2717 215.363 80.505C213.063 79.6617 211.223 78.9333 209.843 78.32C208.54 77.7067 207.888 77.4 207.888 77.4L211.223 66.705C211.223 66.705 211.875 66.9733 213.178 67.51C214.558 68.0467 216.36 68.7367 218.583 69.58C220.883 70.3467 223.336 71.0367 225.943 71.65C228.626 72.1867 231.233 72.455 233.763 72.455C235.22 72.455 236.485 72.34 237.558 72.11C238.631 71.8033 239.475 71.3817 240.088 70.845C240.855 70.2317 241.506 69.3117 242.043 68.085C242.58 66.8583 242.848 65.44 242.848 63.83C242.848 61.2233 242.12 59.23 240.663 57.85C239.283 56.3933 237.443 55.2817 235.143 54.515C232.92 53.6717 230.466 52.905 227.783 52.215C225.483 51.525 223.183 50.7583 220.883 49.915C218.583 49.0717 216.475 47.96 214.558 46.58C212.641 45.2 211.108 43.3983 209.958 41.175C208.808 38.875 208.233 35.9233 208.233 32.32C208.233 26.57 210.073 21.97 213.753 18.52C217.433 14.9933 223.451 13.23 231.808 13.23C234.798 13.23 237.673 13.46 240.433 13.92C243.193 14.3033 245.646 14.7633 247.793 15.3C249.94 15.76 251.55 16.1817 252.623 16.565L250.668 27.145C250.668 27.145 250.055 26.9917 248.828 26.685C247.601 26.3783 245.991 26.0717 243.998 25.765C242.005 25.3817 239.781 25.0367 237.328 24.73C234.951 24.4233 232.575 24.27 230.198 24.27C228.051 24.27 226.441 24.385 225.368 24.615C224.295 24.845 223.451 25.19 222.838 25.65C222.378 26.0333 221.956 26.685 221.573 27.605C221.19 28.4483 220.998 29.5217 220.998 30.825C220.998 33.2783 221.765 35.195 223.298 36.575C224.831 37.955 226.825 39.0283 229.278 39.795C231.731 40.5617 234.3 41.3667 236.983 42.21C239.283 42.8233 241.506 43.5517 243.653 44.395C245.876 45.2383 247.908 46.35 249.748 47.73C251.588 49.11 253.045 50.95 254.118 53.25C255.191 55.4733 255.728 58.3483 255.728 61.875C255.728 68.315 253.696 73.5283 249.633 77.515C245.646 81.5017 239.896 83.495 232.383 83.495ZM276.051 101.09V14.725H284.676L286.401 21.625H286.976C288.509 20.475 290.311 19.2867 292.381 18.06C294.451 16.7567 296.751 15.645 299.281 14.725C301.811 13.7283 304.571 13.23 307.561 13.23C311.777 13.23 315.496 14.4183 318.716 16.795C322.012 19.095 324.542 22.7367 326.306 27.72C328.146 32.7033 329.066 39.1817 329.066 47.155C329.066 54.5917 328.299 60.6867 326.766 65.44C325.232 70.1933 323.201 73.9117 320.671 76.595C318.141 79.2017 315.304 81.0033 312.161 82C309.094 83.0733 306.027 83.61 302.961 83.61C301.121 83.61 299.242 83.495 297.326 83.265C295.409 83.1117 293.722 82.92 292.266 82.69C290.886 82.46 289.889 82.3067 289.276 82.23V101.09H276.051ZM303.766 72.34C305.069 72.34 306.296 72.2633 307.446 72.11C308.596 71.88 309.592 71.3817 310.436 70.615C311.356 69.925 312.161 68.7367 312.851 67.05C313.617 65.3633 314.192 62.8717 314.576 59.575C315.036 56.2017 315.266 51.6783 315.266 46.005C315.266 41.635 315.151 38.185 314.921 35.655C314.767 33.0483 314.461 31.055 314.001 29.675C313.617 28.295 313.119 27.26 312.506 26.57C312.046 26.0333 311.356 25.5733 310.436 25.19C309.592 24.73 308.289 24.5 306.526 24.5C304.226 24.5 301.849 24.8833 299.396 25.65C296.942 26.4167 294.796 27.26 292.956 28.18C291.116 29.1 289.889 29.79 289.276 30.25V70.27C290.196 70.5767 292.074 70.9983 294.911 71.535C297.747 72.0717 300.699 72.34 303.766 72.34ZM366.508 83.495C362.905 83.495 359.685 82.6517 356.848 80.965C354.011 79.2783 351.788 76.825 350.178 73.605C348.568 70.385 347.763 66.475 347.763 61.875C347.763 56.355 348.913 52.0233 351.213 48.88C353.59 45.7367 356.886 43.5133 361.103 42.21C365.396 40.83 370.418 40.14 376.168 40.14H386.748C386.748 36.5367 386.595 33.6617 386.288 31.515C386.058 29.2917 385.598 27.6433 384.908 26.57C384.295 25.8033 383.413 25.2283 382.263 24.845C381.19 24.4617 379.618 24.27 377.548 24.27C374.711 24.27 371.836 24.5383 368.923 25.075C366.01 25.535 363.326 26.1483 360.873 26.915C358.496 27.605 356.541 28.2183 355.008 28.755C353.551 29.215 352.823 29.445 352.823 29.445L349.373 19.555C349.373 19.555 350.101 19.2483 351.558 18.635C353.091 17.945 355.123 17.2167 357.653 16.45C360.26 15.6067 363.173 14.8783 366.393 14.265C369.613 13.575 373.025 13.23 376.628 13.23C382.455 13.23 387.055 14.265 390.428 16.335C393.878 18.3283 396.331 21.2033 397.788 24.96C399.245 28.64 399.973 33.01 399.973 38.07V82H391.463L389.738 74.755H389.048C388.588 75.0617 387.668 75.7133 386.288 76.71C384.908 77.63 383.183 78.6267 381.113 79.7C379.12 80.6967 376.858 81.5783 374.328 82.345C371.875 83.1117 369.268 83.495 366.508 83.495ZM369.728 72.34C372.181 72.34 374.596 71.9567 376.973 71.19C379.426 70.4233 381.535 69.6183 383.298 68.775C385.061 67.855 386.211 67.2033 386.748 66.82V50.95C386.211 50.8733 384.946 50.7583 382.953 50.605C381.036 50.375 378.545 50.26 375.478 50.26C369.268 50.26 365.435 50.9117 363.978 52.215C363.211 52.905 362.598 54.055 362.138 55.665C361.678 57.1983 361.448 59.1533 361.448 61.53C361.448 65.2867 362.061 68.0467 363.288 69.81C364.591 71.4967 366.738 72.34 369.728 72.34ZM450.777 83.495C445.257 83.495 440.35 82.3067 436.057 79.93C431.84 77.5533 428.505 73.7583 426.052 68.545C423.675 63.3317 422.487 56.5467 422.487 48.19C422.487 41.29 423.292 35.5783 424.902 31.055C426.512 26.455 428.735 22.89 431.572 20.36C434.409 17.7533 437.705 15.9133 441.462 14.84C445.219 13.7667 449.244 13.23 453.537 13.23C457.064 13.23 460.437 13.4983 463.657 14.035C466.877 14.495 469.407 14.955 471.247 15.415L469.752 25.88C467.912 25.65 465.305 25.3433 461.932 24.96C458.635 24.5 455.3 24.27 451.927 24.27C448.937 24.27 446.599 24.5 444.912 24.96C443.225 25.42 441.922 26.11 441.002 27.03C439.545 28.5633 438.357 31.2083 437.437 34.965C436.594 38.645 436.172 43.1683 436.172 48.535C436.172 53.5183 436.517 57.5433 437.207 60.61C437.974 63.6 438.855 65.9 439.852 67.51C440.925 69.0433 441.884 70.1167 442.727 70.73C443.264 71.19 444.03 71.6117 445.027 71.995C446.024 72.3783 447.442 72.57 449.282 72.57C451.275 72.57 453.422 72.3017 455.722 71.765C458.022 71.2283 460.169 70.615 462.162 69.925C464.232 69.1583 465.88 68.5067 467.107 67.97C468.41 67.4333 469.062 67.165 469.062 67.165L472.857 76.94C472.857 76.94 471.937 77.515 470.097 78.665C468.334 79.7383 465.804 80.8117 462.507 81.885C459.21 82.9583 455.3 83.495 450.777 83.495ZM518.198 83.61C512.525 83.61 507.503 82.4983 503.133 80.275C498.84 77.975 495.467 74.2183 493.013 69.005C490.637 63.7917 489.448 56.8917 489.448 48.305C489.448 39.2583 490.713 32.205 493.243 27.145C495.773 22.085 499.185 18.4817 503.478 16.335C507.772 14.1883 512.602 13.115 517.968 13.115C523.412 13.115 528.012 14.15 531.768 16.22C535.602 18.2133 538.515 21.5483 540.508 26.225C542.502 30.9017 543.498 37.15 543.498 44.97V53.25H497.153L503.248 51.18C503.095 55.1667 503.21 58.4633 503.593 61.07C503.977 63.6767 504.513 65.67 505.203 67.05C505.97 68.43 506.737 69.465 507.503 70.155C508.423 70.9983 509.573 71.65 510.953 72.11C512.333 72.4933 514.058 72.685 516.128 72.685C518.275 72.685 520.498 72.4933 522.798 72.11C525.175 71.7267 527.398 71.2667 529.468 70.73C531.538 70.1933 533.378 69.695 534.988 69.235C536.598 68.6983 537.787 68.315 538.553 68.085L541.888 78.09C541.198 78.3967 539.703 79.01 537.403 79.93C535.103 80.85 532.305 81.6933 529.008 82.46C525.712 83.2267 522.108 83.61 518.198 83.61ZM503.248 46.695L497.153 43.36L535.908 42.555L529.928 46.12C529.928 41.4433 529.775 37.495 529.468 34.275C529.238 31.055 528.587 28.64 527.513 27.03C526.977 26.34 526.095 25.6883 524.868 25.075C523.718 24.385 521.533 24.04 518.313 24.04C514.863 24.04 512.257 24.4233 510.493 25.19C508.807 25.88 507.503 26.8 506.583 27.95C504.053 30.94 502.942 37.1883 503.248 46.695Z" fill="#1876F2"/>
</svg>
